<svg width="129" height="70" viewBox="0 0 129 70" fill="none" xmlns="http://www.w3.org/2000/svg">
<path d="M35.9252 35.1432L24.1877 69.3515H11.7141L0 35.1432H11.4687L17.7727 58.7063H18.1291L24.4565 35.1432H35.9252Z" fill="white"/>
<path d="M54.9482 70C51.3726 70 48.2878 69.2638 45.7055 67.7857C43.1231 66.3075 41.1367 64.245 39.7462 61.5925C38.3557 58.94 37.6663 55.8668 37.6663 52.3612C37.6663 48.8557 38.3615 45.7591 39.7462 43.1066C41.1367 40.4541 43.1231 38.3916 45.7055 36.9134C48.2878 35.4353 51.3668 34.6991 54.9482 34.6991C58.5296 34.6991 61.6261 35.4353 64.2026 36.9134C66.7792 38.3916 68.7597 40.4541 70.1502 43.1066C71.5407 45.7591 72.2301 48.844 72.2301 52.3612C72.2301 55.8785 71.5349 58.94 70.1502 61.5925C68.7597 64.245 66.7792 66.3075 64.2026 67.7857C61.6261 69.2638 58.5413 70 54.9482 70ZM55.0125 61.7795C56.958 61.7795 58.4654 60.9031 59.5345 59.1503C60.6037 57.3975 61.1354 55.1131 61.1354 52.2911C61.1354 49.4692 60.6037 47.1555 59.5345 45.3969C58.4654 43.6382 56.958 42.756 55.0125 42.756C53.0669 42.756 51.4427 43.6382 50.3677 45.3969C49.2927 47.1555 48.7552 49.4516 48.7552 52.2911C48.7552 55.1306 49.2927 57.3975 50.3677 59.1503C51.4427 60.9031 52.991 61.7795 55.0125 61.7795Z" fill="white"/>
<path d="M83.2721 31.1585C81.7414 31.1585 80.4269 30.6502 79.3285 29.6336C78.2301 28.6169 77.6809 27.39 77.6809 25.9469C77.6809 24.5038 78.2301 23.2827 79.3285 22.2719C80.4269 21.2611 81.7414 20.7587 83.2721 20.7587C84.8029 20.7587 86.1349 21.2611 87.2275 22.2719C88.32 23.2827 88.8633 24.5038 88.8633 25.9469C88.8633 27.39 88.32 28.6169 87.2275 29.6336C86.1349 30.6502 84.8204 31.1585 83.2721 31.1585ZM77.8153 69.3514V35.1431H88.7056V69.3514H77.8153Z" fill="white"/>
<path d="M108.102 69.8423C105.596 69.8423 103.306 69.1879 101.232 67.8733C99.1577 66.5587 97.5101 64.6015 96.2774 62.0074C95.0446 59.4074 94.4312 56.1648 94.4312 52.2736C94.4312 48.3824 95.068 44.9412 96.3475 42.3529C97.627 39.7646 99.3038 37.8424 101.378 36.5863C103.458 35.3301 105.684 34.705 108.062 34.705C110.761 34.705 112.893 35.3593 114.442 36.6739C115.996 37.9885 117.088 39.4316 117.725 41.0033H117.947V23.7443H128.837V69.3573H118.058V63.8127H117.725C117.041 65.3844 115.914 66.7866 114.342 68.0135C112.771 69.2405 110.691 69.8481 108.108 69.8481L108.102 69.8423ZM111.888 61.3588C113.881 61.3588 115.423 60.535 116.533 58.8874C117.637 57.2398 118.192 55.0255 118.192 52.2502C118.192 49.475 117.637 47.2548 116.533 45.6364C115.429 44.018 113.881 43.2118 111.888 43.2118C109.896 43.2118 108.319 44.0297 107.232 45.6715C106.145 47.3132 105.608 49.5042 105.608 52.2502C105.608 54.9962 106.151 57.2223 107.232 58.8757C108.313 60.5292 109.867 61.3588 111.888 61.3588Z" fill="white"/>
<path d="M5.76649 22.0907V12.8536H0V9.66939L5.93008 9.44738L6.49095 2.81604H10.0315V9.44738H19.8994V12.8536H10.0315V22.1024C10.0315 25.7014 11.3051 27.4425 15.091 27.4425C16.9314 27.4425 18.4212 27.0745 19.8585 26.5486L20.7231 29.6627C18.8419 30.3171 16.7737 30.878 14.1037 30.878C7.8464 30.878 5.76649 27.3374 5.76649 22.0907Z" fill="white"/>
<path d="M26.7348 0.00583937H30.9998V8.05692L30.7428 12.766H30.8771C32.8402 10.6277 35.2414 8.92747 38.4431 8.92747C43.3274 8.92747 45.5534 11.9364 45.5534 17.3817V30.3581H41.2884V17.9367C41.2884 14.2851 40.0615 12.5966 36.9591 12.5966C34.6864 12.5966 33.1499 13.7184 30.994 15.9327V30.3581H26.729V0L26.7348 0.00583937Z" fill="white"/>
<path d="M51.4426 19.8705C51.4426 13.0581 56.5723 8.93323 62.1752 8.93323C68.3156 8.93323 71.8094 12.9646 71.8094 18.8072C71.8094 19.7069 71.6984 20.5775 71.6166 21.1267H54.4048V18.0009H68.9583L68.0352 19.0409C68.0352 14.5071 65.8443 12.2343 62.2979 12.2343C58.7515 12.2343 55.6317 14.9394 55.6317 19.8705C55.6317 24.8017 58.8567 27.5419 63.3495 27.5419C65.6865 27.5419 67.5795 26.8349 69.4607 25.7014L70.9506 28.3949C68.8005 29.8146 66.0195 30.878 62.8062 30.878C56.4613 30.878 51.4426 26.8349 51.4426 19.8705Z" fill="white"/>
</svg>
